<?xml version="1.0" standalone="no"?>
<!DOCTYPE svg PUBLIC "-//W3C//DTD SVG 20010904//EN"
 "http://www.w3.org/TR/2001/REC-SVG-20010904/DTD/svg10.dtd">
<svg version="1.0" xmlns="http://www.w3.org/2000/svg"
 width="352.000000pt" height="332.000000pt" viewBox="0 0 352.000000 332.000000"
 preserveAspectRatio="xMidYMid meet">

<g transform="translate(0.000000,332.000000) scale(0.100000,-0.100000)"
fill="#000000" stroke="none">
<path d="M1636 2937 l-149 -62 -67 -156 -67 -157 27 -65 28 -65 -100 -72
c-100 -71 -101 -72 -124 -53 -12 10 -38 31 -58 46 l-35 29 -153 -13 c-84 -6
-161 -15 -170 -18 -9 -3 -65 -62 -123 -130 -96 -112 -106 -128 -101 -155 3
-17 8 -83 11 -146 4 -63 9 -122 11 -132 3 -9 61 -64 130 -123 l126 -108 71 2
72 2 37 -112 c21 -62 35 -116 32 -120 -2 -4 -28 -21 -57 -38 l-53 -30 -37
-158 c-21 -87 -37 -164 -37 -170 0 -7 38 -73 85 -146 l85 -135 105 -26 c69
-17 131 -26 184 -26 l79 0 118 70 c65 39 122 76 125 83 4 7 12 38 19 69 l13
58 128 0 129 0 6 -27 c22 -104 21 -102 152 -180 l123 -73 80 0 c53 0 114 9
182 26 l102 26 88 140 88 141 -38 160 -37 160 -62 39 -62 39 35 107 c20 59 39
112 44 117 5 7 34 8 74 5 l67 -6 126 109 127 108 7 57 c3 31 9 107 13 167 l7
110 -77 90 c-43 50 -91 105 -107 124 l-29 33 -169 15 -169 15 -56 -47 -56 -48
-47 34 c-109 77 -152 110 -152 117 0 4 12 34 26 68 l26 61 -65 153 -64 153
-159 63 c-87 35 -159 64 -159 63 0 0 -67 -28 -149 -62z m231 -174 c38 -14 73
-30 80 -35 6 -5 26 -45 43 -89 l32 -79 -32 -78 -32 -77 -84 -34 -85 -33 -78
32 -79 31 -32 77 c-18 42 -33 82 -33 89 0 6 14 45 32 85 l32 73 77 32 c42 17
80 31 84 32 4 1 38 -11 75 -26z m-219 -573 l146 -60 153 61 153 61 65 -47 c44
-31 65 -53 65 -67 0 -11 -5 -84 -11 -163 l-12 -143 107 -123 c58 -68 106 -131
105 -139 0 -8 -10 -42 -22 -75 l-22 -60 -161 -39 -161 -39 -89 -143 -89 -143
-80 -1 -80 0 -84 135 c-47 75 -89 139 -95 144 -6 5 -81 25 -167 45 l-155 37
-25 77 -26 78 39 44 c21 23 69 80 107 124 l69 81 -12 160 -11 160 65 48 c35
26 68 47 73 47 5 0 74 -27 155 -60z m-547 -65 l66 -55 7 -86 6 -86 -52 -63
c-51 -61 -55 -63 -108 -69 -147 -17 -128 -21 -202 47 l-66 62 -6 82 -6 81 56
66 c52 61 59 65 102 69 136 11 132 12 203 -48z m1649 26 c8 -10 33 -40 54 -65
38 -45 39 -49 37 -117 -1 -39 -5 -79 -9 -89 -4 -11 -36 -44 -72 -74 -63 -53
-65 -54 -115 -50 -135 13 -129 10 -185 77 l-52 62 4 84 5 84 64 59 64 59 95
-6 c76 -4 98 -9 110 -24z m-1294 -1032 c24 -37 44 -76 44 -86 0 -10 -7 -51
-17 -91 l-17 -72 -79 -46 c-78 -45 -80 -46 -126 -34 -125 30 -117 26 -166 104
l-46 74 21 84 21 83 80 46 80 46 81 -20 80 -20 44 -68z m1056 -59 c9 -41 17
-82 18 -91 0 -8 -19 -45 -42 -81 l-42 -67 -88 -21 -87 -22 -73 44 -73 44 -22
89 -23 88 45 71 44 71 88 21 88 20 75 -46 74 -45 18 -75z"/>
</g>
</svg>
