<?xml version="1.0" standalone="no"?>
<!DOCTYPE svg PUBLIC "-//W3C//DTD SVG 20010904//EN"
 "http://www.w3.org/TR/2001/REC-SVG-20010904/DTD/svg10.dtd">
<svg version="1.0" xmlns="http://www.w3.org/2000/svg"
 width="314.000000pt" height="302.000000pt" viewBox="0 0 314.000000 302.000000"
 preserveAspectRatio="xMidYMid meet">

<g transform="translate(0.000000,302.000000) scale(0.100000,-0.100000)"
fill="#000000" stroke="none">
<path d="M407 2622 l-57 -58 0 -415 0 -415 53 -52 53 -52 420 0 420 0 52 53
52 53 0 420 0 420 -53 52 -53 52 -415 0 -415 0 -57 -58z m781 -469 l-3 -308
-307 -3 -308 -2 0 310 0 310 310 0 310 0 -2 -307z"/>
<path d="M1782 2627 l-52 -53 0 -420 0 -420 53 -52 53 -52 420 0 420 0 37 38
37 38 0 445 0 445 -43 42 -43 42 -415 0 -415 0 -52 -53z m778 -477 l0 -310
-307 2 -308 3 -3 308 -2 307 310 0 310 0 0 -310z"/>
<path d="M402 1247 l-52 -53 0 -415 0 -415 43 -42 43 -42 445 0 445 0 37 38
37 38 0 420 0 420 -53 52 -53 52 -420 0 -420 0 -52 -53z m786 -469 l2 -308
-310 0 -310 0 0 310 0 310 308 -2 307 -3 3 -307z"/>
<path d="M1782 1247 l-52 -53 0 -420 0 -420 38 -37 38 -37 444 0 444 0 28 27
28 27 0 446 0 446 -38 37 -38 37 -420 0 -420 0 -52 -53z m778 -467 l0 -310
-310 0 -310 0 0 303 c0 167 3 307 7 310 3 4 143 7 310 7 l303 0 0 -310z"/>
</g>
</svg>
