<?xml version="1.0" encoding="UTF-8"?>
<!DOCTYPE svg PUBLIC "-//W3C//DTD SVG 1.1//EN"
  "http://www.w3.org/Graphics/SVG/1.1/DTD/svg11.dtd">
<!-- Created with Inkpad (http://www.taptrix.com/) --><svg xmlns:inkpad="http://taptrix.com/inkpad/svg_extensions" height="58pt" xmlns:xlink="http://www.w3.org/1999/xlink" xmlns="http://www.w3.org/2000/svg" width="84pt" version="1.1" viewBox="0,0,84,58">
<defs/>
<g id="Untitled" inkpad:layerName="Untitled">
<path d="M72.2936+56.2152L64.324+56.2152C59.6352+56.2152+56.9456+50.9272+54.5736+46.2616C52.8576+42.888+50.9136+39.0648+48.9632+39.0648L34.1816+39.0648C31.9424+39.0648+29.9936+42.9072+28.1088+46.624C25.7168+51.3392+23.244+56.2152+18.8224+56.2152L10.8544+56.2152C5.7376+56.2152+1.5744+52.0536+1.5744+46.936L1.5744+12.5816C1.5744+7.4648+5.7368+3.3016+10.8544+3.3016L72.2944+3.3016C77.4112+3.3016+81.5744+7.4648+81.5744+12.5816L81.5744+46.936C81.5736+52.0528+77.4112+56.2152+72.2936+56.2152ZM34.1816+35.864L48.9648+35.864C52.8784+35.864+55.0872+40.2104+57.4272+44.8112C59.4776+48.844+61.5984+53.0152+64.3248+53.0152L72.2944+53.0152C75.6464+53.0152+78.3744+50.288+78.3744+46.936L78.3744+12.5816C78.3744+9.2296+75.6472+6.5016+72.2944+6.5016L10.8544+6.5016C7.5024+6.5016+4.7744+9.2296+4.7744+12.5816L4.7744+46.936C4.7744+50.2872+7.5016+53.0152+10.8544+53.0152L18.8224+53.0152C21.2792+53.0152+23.3008+49.0304+25.2544+45.1768C27.576+40.5984+29.9768+35.864+34.1816+35.864Z" opacity="1" fill="#000000"/>
<g opacity="1">
<path d="M20.6928+32.2528C15.62+32.2528+11.4928+28.1248+11.4928+23.0528C11.4928+17.9792+15.62+13.8528+20.6928+13.8528C25.7656+13.8528+29.8928+17.98+29.8928+23.0528C29.8928+28.1248+25.7656+32.2528+20.6928+32.2528ZM20.6928+17.0528C17.384+17.0528+14.6928+19.744+14.6928+23.0528C14.6928+26.3608+17.384+29.0528+20.6928+29.0528C24.0016+29.0528+26.6928+26.3608+26.6928+23.0528C26.6928+19.7448+24.0016+17.0528+20.6928+17.0528Z" opacity="1" fill="#000000"/>
<g opacity="1">
<g opacity="1">
<path d="M62.7928+21.1344C61.9096+21.1344+61.1928+20.4176+61.1928+19.5344L61.1928+15.8528C61.1928+14.9696+61.9096+14.2528+62.7928+14.2528C63.676+14.2528+64.3928+14.9696+64.3928+15.8528L64.3928+19.5344C64.3928+20.4168+63.6768+21.1344+62.7928+21.1344Z" opacity="1" fill="#000000"/>
<path d="M62.7928+31.8528C61.9096+31.8528+61.1928+31.136+61.1928+30.2528L61.1928+26.5712C61.1928+25.6872+61.9096+24.9712+62.7928+24.9712C63.676+24.9712+64.3928+25.6872+64.3928+26.5712L64.3928+30.2528C64.3928+31.136+63.6768+31.8528+62.7928+31.8528Z" opacity="1" fill="#000000"/>
</g>
<g opacity="1">
<path d="M59.496+24.6528L55.8144+24.6528C54.9312+24.6528+54.2144+23.936+54.2144+23.0528C54.2144+22.1696+54.9312+21.4528+55.8144+21.4528L59.496+21.4528C60.3792+21.4528+61.096+22.1696+61.096+23.0528C61.096+23.936+60.38+24.6528+59.496+24.6528Z" opacity="1" fill="#000000"/>
<path d="M69.7728+24.6528L66.0912+24.6528C65.208+24.6528+64.4912+23.936+64.4912+23.0528C64.4912+22.1696+65.208+21.4528+66.0912+21.4528L69.7728+21.4528C70.656+21.4528+71.3728+22.1696+71.3728+23.0528C71.3728+23.936+70.656+24.6528+69.7728+24.6528Z" opacity="1" fill="#000000"/>
</g>
</g>
</g>
</g>
</svg>
