<svg xmlns:dc="http://purl.org/dc/elements/1.1/" xmlns:cc="http://creativecommons.org/ns#" xmlns:rdf="http://www.w3.org/1999/02/22-rdf-syntax-ns#" xmlns:svg="http://www.w3.org/2000/svg" xmlns="http://www.w3.org/2000/svg" xmlns:sodipodi="http://sodipodi.sourceforge.net/DTD/sodipodi-0.dtd" xmlns:inkscape="http://www.inkscape.org/namespaces/inkscape" version="1.1" x="0px" y="0px" viewBox="0 0 100 100"><g transform="translate(0,-952.36218)"><path style="text-indent:0;text-transform:none;direction:ltr;block-progression:tb;baseline-shift:baseline;color:#000000;enable-background:accumulate;" d="m 41.999985,957.36218 c -1.452,0.072 -2.6909,1.2771 -2.9375,2.4375 l -1.625,8.9063 c -0.7897,0.2963 -1.5516,0.6206 -2.3125,0.9687 l -7.5,-5.1562 c -1.1475,-0.7757 -2.8382,-0.6094 -3.8125,0.375 l -11.3125,11.3125 c -0.9749,0.982 -1.1273,2.6719 -0.3438,3.8125 l 5.1563,7.4375 c -0.3444,0.7523 -0.6443,1.5323 -0.9375,2.3125 l -8.9061997,1.625 c -1.3761,0.2477 -2.4763,1.5706 -2.4688,2.9687 l 0,16.00002 c 0.01,1.3877 1.1029,2.6916 2.4688,2.9375 l 8.9061997,1.625 c 0.3009,0.7862 0.6197,1.5625 0.9688,2.3125 l -5.1876,7.4375 c -0.7835,1.1406 -0.6311,2.8304 0.3438,3.8125 l 11.3125,11.3125 c 0.9779,0.9998 2.691,1.1669 3.8437,0.375 l 7.4688,-5.1563 c 0.7643,0.3469 1.5237,0.6755 2.3125,0.9688 l 1.625,8.9062 c 0.2458,1.3658 1.5497,2.4617 2.9375,2.4688 l 16,0 c 1.3877,-0.01 2.6916,-1.103 2.9375,-2.4688 l 1.625,-8.9062 c 0.7893,-0.296 1.5516,-0.6205 2.3125,-0.9688 l 7.4375,5.1563 c 1.1527,0.7919 2.8659,0.6248 3.8437,-0.375 l 11.3126,-11.3125 c 0.9748,-0.9821 1.1271,-2.6719 0.3437,-3.8125 l -5.1563,-7.4375 c 0.3412,-0.7413 0.6451,-1.5102 0.9376,-2.2813 l 8.9374,-1.6562 c 1.3659,-0.2459 2.4617,-1.5498 2.4688,-2.9375 l 0,-16.00002 c 0.01,-1.3981 -1.0927,-2.721 -2.4688,-2.9687 l -8.9062,-1.625 c -0.2878,-0.7734 -0.6289,-1.5313 -0.9688,-2.2813 l 5.1563,-7.4687 c 0.7834,-1.1406 0.6312,-2.8305 -0.3437,-3.8125 l -11.3126,-11.3125 c -0.9857,-0.9904 -2.698,-1.1435 -3.8437,-0.3438 l -7.4375,5.125 c -0.7609,-0.3482 -1.5232,-0.6728 -2.3125,-0.9687 l -1.625,-8.9063 c -0.2587,-1.3546 -1.5585,-2.4331 -2.9375,-2.4375 l -16,0 z m 2.5,6 11,0 1.4688,8.0313 c 0.195,1.0595 1.0057,1.9823 2.0312,2.3125 1.6859,0.53 3.326,1.2222 4.875,2.0312 0.9618,0.5035 2.1997,0.4285 3.0938,-0.1875 l 6.7187,-4.6562 7.7813,7.7812 -4.6563,6.75 c -0.616,0.894 -0.691,2.1319 -0.1875,3.0938 0.7954,1.5273 1.438,3.1241 1.9688,4.8125 0.3254,1.0449 1.2658,1.8725 2.3437,2.0625 l 8.0625,1.4687 0,11.00002 -8.0625,1.4687 c -1.0779,0.19 -2.0183,1.0176 -2.3437,2.0625 -0.5265,1.6695 -1.19,3.262 -2,4.8125 -0.5036,0.9619 -0.4285,2.1998 0.1874,3.0938 l 4.6876,6.7187 -7.7813,7.7813 -6.7187,-4.625 c -0.8883,-0.6258 -2.1265,-0.7133 -3.0938,-0.2188 -1.549,0.809 -3.1891,1.5013 -4.875,2.0313 -1.0255,0.3301 -1.8362,1.253 -2.0312,2.3125 l -1.4688,8.0625 -11,0 -1.4688,-8.0625 c -0.195,-1.0595 -1.0058,-1.9824 -2.0312,-2.3125 -1.6995,-0.5343 -3.3684,-1.1962 -4.9062,-2 -0.9619,-0.5035 -2.1998,-0.4285 -3.0938,0.1875 l -6.7188,4.625 -7.75,-7.75 4.6876,-6.7188 c 0.6277,-0.9006 0.703,-2.1558 0.1874,-3.125 -0.825,-1.5779 -1.5083,-3.1802 -2.0312,-4.8437 -0.3255,-1.045 -1.2659,-1.8725 -2.3438,-2.0625 l -8.0312,-1.4688 0,-10.96872 8.0312,-1.4687 c 1.0779,-0.19 2.0183,-1.0176 2.3438,-2.0625 0.5299,-1.686 1.191,-3.2948 2,-4.8438 0.5035,-0.9618 0.4284,-2.1997 -0.1875,-3.0937 l -4.6875,-6.7188 7.7812,-7.7812 6.7813,4.6562 c 0.8873,0.6043 2.108,0.679 3.0625,0.1875 1.5445,-0.8056 3.1976,-1.5039 4.875,-2.0312 1.0254,-0.3302 1.8362,-1.253 2.0312,-2.3125 l 1.4688,-8.0313 z m 5.5,18 c -11.5624,0 -21,9.4375 -21,21.00002 0,11.5624 9.4376,21 21,21 11.5625,0 21,-9.4376 21,-21 0,-11.56252 -9.4375,-21.00002 -21,-21.00002 z m 0,6 c 8.3198,0 15,6.6801 15,15.00002 0,8.3197 -6.6802,15 -15,15 -8.3198,0 -15,-6.6803 -15,-15 0,-8.31992 6.6802,-15.00002 15,-15.00002 z" fill="#000000" fill-opacity="1" stroke="none" marker="none" visibility="visible"/></g></svg>