<?xml version="1.0" standalone="no"?>
<!DOCTYPE svg PUBLIC "-//W3C//DTD SVG 20010904//EN"
 "http://www.w3.org/TR/2001/REC-SVG-20010904/DTD/svg10.dtd">
<svg version="1.0" xmlns="http://www.w3.org/2000/svg"
 width="308.000000pt" height="332.000000pt" viewBox="0 0 308.000000 332.000000"
 preserveAspectRatio="xMidYMid meet">

<g transform="translate(0.000000,332.000000) scale(0.100000,-0.100000)"
fill="#000000" stroke="none">
<path d="M960 2514 c-402 -341 -530 -455 -547 -487 l-22 -42 -1 -665 0 -666
48 -47 48 -47 340 0 340 0 47 48 47 48 0 447 0 447 295 0 295 0 0 -448 0 -448
48 -47 48 -47 340 0 340 0 32 33 32 33 0 714 0 715 -535 453 -535 452 -68 -1
-67 0 -525 -445z m1089 -189 l461 -390 0 -587 0 -588 -225 0 -225 0 0 447 0
447 -52 53 -52 53 -400 0 -400 0 -53 -52 -53 -52 0 -448 0 -448 -225 0 -225 0
0 588 0 587 477 403 c424 358 478 401 494 390 10 -7 225 -188 478 -403z"/>
</g>
</svg>
