<svg xmlns="http://www.w3.org/2000/svg" xmlns:xlink="http://www.w3.org/1999/xlink" viewBox="0 0 400 372"><g transform="translate(23.258 0)" id="ss10806539605_1"><g><defs><linearGradient id="idss10806539605_2g1367925205" x1="0" x2="1" y1="0.4975124378109453" y2="0.5024875621890547"><stop offset="0" stop-color="rgb(253,14,55)" stop-opacity="1"/><stop offset="1" stop-color="rgb(249,93,255)" stop-opacity="1"/></linearGradient></defs><path d="M 174.865 108.055 L 228.9 8.558 L 214.122 120.804 L 316.332 72.068 L 238.384 154.197 L 349.721 174.831 L 238.384 195.466 L 316.332 277.603 L 214.122 228.859 L 228.9 341.114 L 174.865 241.617 L 120.83 341.114 L 135.607 228.859 L 33.397 277.603 L 111.345 195.466 L 0 174.831 L 111.345 154.197 L 33.397 72.068 L 135.607 120.804 L 120.83 8.558 Z" fill="url(#idss10806539605_2g1367925205)"/></g><g><defs><linearGradient id="idss10806539605_3g-1367925208" x1="1" x2="0" y1="0.49748743718593225" y2="0.5025125628140678"><stop offset="0" stop-color="rgb(253,14,55)" stop-opacity="1"/><stop offset="1" stop-color="rgb(249,93,255)" stop-opacity="1"/></linearGradient></defs><path d="M 108.07 174.578 L 8.769 120.166 L 120.978 135.378 L 72.629 33 L 154.472 111.242 L 175.537 0 L 195.747 111.399 L 278.183 33.786 L 229.048 135.789 L 341.371 121.441 L 241.651 175.093 L 340.952 229.496 L 228.751 214.293 L 277.1 316.672 L 195.258 238.421 L 174.192 349.671 L 153.983 238.263 L 71.546 315.886 L 120.681 213.883 L 8.358 228.221 Z" fill="url(#idss10806539605_3g-1367925208)"/></g></g></svg>