<svg xmlns="http://www.w3.org/2000/svg" xmlns:xlink="http://www.w3.org/1999/xlink" viewBox="0 0 400 372"><g transform="translate(0 4.89)" id="ss10901213577_4"><path d="M 271.441 87.761 C 271.441 86.974 272.078 86.337 272.865 86.337 C 273.651 86.337 274.288 86.974 274.288 87.761 C 274.288 88.547 273.651 89.184 272.865 89.184 C 272.078 89.184 271.441 88.547 271.441 87.761 Z" fill="rgb(255,255,255)"/><path d="M 373.031 221.218 C 373.031 218.3 375.396 215.935 378.314 215.935 C 381.233 215.935 383.598 218.3 383.598 221.218 C 383.598 224.136 381.233 226.501 378.314 226.501 C 375.396 226.501 373.031 224.136 373.031 221.218 Z" fill="rgb(255,255,255)"/><path d="M 333.188 184.952 C 333.188 183.795 334.126 182.856 335.284 182.856 C 336.441 182.856 337.38 183.795 337.38 184.952 C 337.38 186.11 336.441 187.048 335.284 187.048 C 334.126 187.048 333.188 186.11 333.188 184.952 Z" fill="rgb(255,255,255)"/><path d="M 379.511 303.721 C 379.511 301.363 381.423 299.451 383.782 299.451 C 386.14 299.451 388.052 301.363 388.052 303.721 C 388.052 306.08 386.14 307.992 383.782 307.992 C 381.423 307.992 379.511 306.08 379.511 303.721 Z" fill="rgb(255,255,255)"/><path d="M 151.301 359.059 C 151.301 354.68 154.852 351.13 159.231 351.13 C 163.611 351.13 167.162 354.68 167.162 359.059 C 167.162 363.438 163.611 366.988 159.231 366.988 C 154.852 366.988 151.301 363.438 151.301 359.059 Z" fill="rgb(255,255,255)"/><path d="M 391.738 92.17 C 391.738 89.812 393.65 87.9 396.009 87.9 C 398.367 87.9 400.279 89.812 400.279 92.17 C 400.279 94.529 398.367 96.441 396.009 96.441 C 393.65 96.441 391.738 94.529 391.738 92.17 Z" fill="rgb(255,255,255)"/><path d="M 17.083 23.665 C 17.083 19.305 20.618 15.771 24.978 15.771 C 29.339 15.771 32.873 19.305 32.873 23.665 C 32.873 28.025 29.339 31.559 24.978 31.559 C 20.618 31.559 17.083 28.025 17.083 23.665 Z" fill="rgb(255,255,255)"/><path d="M 325.677 348.23 C 325.677 346.407 327.155 344.93 328.978 344.93 C 330.801 344.93 332.279 346.407 332.279 348.23 C 332.279 350.053 330.801 351.531 328.978 351.531 C 327.155 351.531 325.677 350.053 325.677 348.23 Z" fill="rgb(255,255,255)"/><path d="M 0 111.818 C 0 109.46 1.912 107.548 4.271 107.548 C 6.629 107.548 8.541 109.46 8.541 111.818 C 8.541 114.177 6.629 116.088 4.271 116.088 C 1.912 116.088 0 114.177 0 111.818 Z" fill="rgb(255,255,255)"/><path d="M 14.183 245.249 C 14.183 241.656 17.096 238.744 20.69 238.744 C 24.283 238.744 27.197 241.656 27.197 245.249 C 27.197 248.842 24.283 251.755 20.69 251.755 C 17.096 251.755 14.183 248.842 14.183 245.249 Z" fill="rgb(255,255,255)"/><path d="M 62.568 167.845 C 62.568 166.461 63.69 165.339 65.074 165.339 C 66.459 165.339 67.581 166.461 67.581 167.845 C 67.581 169.229 66.459 170.352 65.074 170.352 C 63.69 170.352 62.568 169.229 62.568 167.845 Z" fill="rgb(255,255,255)"/><path d="M 284.856 5.248 C 284.856 2.35 287.206 0 290.105 0 C 293.004 0 295.354 2.35 295.354 5.248 C 295.354 8.147 293.004 10.496 290.105 10.496 C 287.206 10.496 284.856 8.147 284.856 5.248 Z" fill="rgb(255,255,255)"/></g></svg>