<?xml version="1.0" standalone="no"?>
<!DOCTYPE svg PUBLIC "-//W3C//DTD SVG 20010904//EN"
 "http://www.w3.org/TR/2001/REC-SVG-20010904/DTD/svg10.dtd">
<svg version="1.0" xmlns="http://www.w3.org/2000/svg"
 width="326.000000pt" height="304.000000pt" viewBox="0 0 326.000000 304.000000"
 preserveAspectRatio="xMidYMid meet">

<g transform="translate(0.000000,304.000000) scale(0.100000,-0.100000)"
fill="#000000" stroke="none">
<path d="M1435 2761 c-105 -42 -195 -79 -201 -83 -6 -4 -50 -99 -98 -210 l-88
-203 89 -204 88 -204 195 -78 c107 -43 202 -78 210 -79 9 0 103 35 209 78
l193 77 88 208 89 207 -87 202 -87 202 -165 66 c-91 36 -183 73 -205 82 l-40
16 -190 -77z m330 -189 l118 -48 53 -124 c30 -68 54 -129 54 -134 0 -6 -23
-66 -51 -133 l-51 -122 -130 -52 -130 -52 -126 50 -127 51 -52 118 c-28 66
-52 128 -52 140 -1 20 88 236 103 251 11 11 239 102 257 103 8 0 68 -21 134
-48z"/>
<path d="M772 1287 l-182 -182 0 -333 0 -332 100 0 100 0 0 293 0 293 128 127
129 127 584 0 585 0 127 -128 127 -129 0 -291 0 -292 95 0 95 0 0 339 0 339
-182 176 -183 176 -670 0 -670 0 -183 -183z"/>
</g>
</svg>
