<?xml version="1.0" standalone="no"?>
<!DOCTYPE svg PUBLIC "-//W3C//DTD SVG 20010904//EN"
 "http://www.w3.org/TR/2001/REC-SVG-20010904/DTD/svg10.dtd">
<svg version="1.0" xmlns="http://www.w3.org/2000/svg"
 width="420.000000pt" height="398.000000pt" viewBox="0 0 420.000000 398.000000"
 preserveAspectRatio="xMidYMid meet">

<g transform="translate(0.000000,398.000000) scale(0.100000,-0.100000)"
fill="#000000" stroke="none">
<path d="M522 3637 l-52 -53 0 -387 0 -387 105 0 105 0 0 335 0 335 335 0 335
0 0 105 0 105 -388 0 -388 0 -52 -53z"/>
<path d="M2790 3585 l0 -105 330 0 330 0 0 -335 0 -335 110 0 110 0 0 383 0
383 -58 57 -58 57 -382 0 -382 0 0 -105z"/>
<path d="M1360 2690 l0 -200 -200 0 -200 0 2 -397 3 -398 198 -3 197 -2 0
-195 0 -195 705 0 705 0 0 195 0 195 -705 0 -705 0 0 100 0 100 905 0 905 0 0
300 0 300 -195 0 -195 0 0 -100 0 -100 -710 0 -710 0 0 100 0 100 705 0 704 0
3 200 3 200 -707 0 -708 0 0 -200z"/>
<path d="M470 988 l0 -382 57 -58 57 -58 383 0 383 0 0 110 0 110 -335 0 -335
0 0 330 0 330 -105 0 -105 0 0 -382z"/>
<path d="M3450 1040 l0 -330 -330 0 -330 0 0 -110 0 -110 383 0 383 0 57 58
57 58 0 382 0 382 -110 0 -110 0 0 -330z"/>
</g>
</svg>
